<svg xmlns="http://www.w3.org/2000/svg" height="48" width="48" viewBox="0 0 48 48">
    <g id="cookieshq-icon">
        <g id="Group" transform="translate(1.000000, 1.000000)" fill="#FFFFFF">
            <g id="CookiesHQ_icon_0_Layer0_0_MEMBER_0_FILL-link">
                <g id="CookiesHQ_icon_0_Layer0_0_MEMBER_0_FILL">
                    <path d="M44.6,27.05 C45,26.45 45.2,25.8166667 45.2,25.15 C45.2,24.35 44.95,23.6333333 44.45,23 C44.3833333,21.8333333 44.0166667,20.8 43.35,19.9 C43.1833333,18.9 43,18.0166667 42.8,17.25 C42.8666667,16.95 42.9,16.6 42.9,16.2 C42.9,15.2666667 42.6666667,14.3833333 42.2,13.55 C41.7666667,12.75 41.1666667,12.0833333 40.4,11.55 C39.9,10.6833333 39.3166667,9.85 38.65,9.05 C38.0166667,7.05 36.9166667,5.46666667 35.35,4.3 C33.75,3.06666667 31.9833333,2.45 30.05,2.45 L29.5,2.5 C28.3333333,2.1 27.25,1.81666667 26.25,1.65 C25.1833333,1.18333333 24.05,0.95 22.85,0.95 C21.6166667,0.95 20.45,1.2 19.35,1.7 L17.75,2.05 C17.1833333,1.88333333 16.6166667,1.8 16.05,1.8 C15.25,1.8 14.4833333,1.98333333 13.75,2.35 C13.0166667,2.71666667 12.4166667,3.25 11.95,3.95 C9.95,4.38333333 8.28333333,5.41666667 6.95,7.05 C5.65,8.71666667 4.93333333,10.65 4.8,12.85 C4.43333333,13.5166667 4.16666667,14.0666667 4,14.5 C3.3,15.0333333 2.75,15.6833333 2.35,16.45 C1.95,17.2166667 1.75,18.0666667 1.75,19 C1.75,19.9 1.95,20.7333333 2.35,21.5 L2.3,22.35 C1.86666667,22.65 1.51666667,23.0333333 1.25,23.5 C0.95,24 0.8,24.55 0.8,25.15 C0.8,25.7833333 0.966666667,26.3666667 1.3,26.9 C1.66666667,27.4 2.11666667,27.7833333 2.65,28.05 C2.51666667,28.5166667 2.45,29 2.45,29.5 C2.45,30.5333333 2.7,31.4666667 3.2,32.3 C3.66666667,33.1666667 4.31666667,33.8333333 5.15,34.3 L5.45,34.85 L5.45,34.9 C5.45,36.2666667 5.85,37.45 6.65,38.45 C7.45,39.45 8.45,40.05 9.65,40.25 C10.45,41.5166667 11.4,42.5166667 12.5,43.25 C13.9666667,44.2833333 15.5833333,44.8 17.35,44.8 C17.85,44.8 18.3333333,44.7666667 18.8,44.7 C20.2333333,44.9666667 21.6166667,45.1 22.95,45.1 C25.7833333,45.1 28.4666667,44.5333333 31,43.4 L31.5,43.4 C33.8666667,43.4 35.8833333,42.5666667 37.55,40.9 C39.2833333,39.2666667 40.2666667,37.2166667 40.5,34.75 C41.7,32.6833333 42.55,30.5 43.05,28.2 C43.65,28 44.1666667,27.6166667 44.6,27.05 Z" id="Shape"></path>
                </g>
            </g>
        </g>
        <g id="Group" fill="#212121">
            <g id="CookiesHQ_icon_0_Layer0_0_MEMBER_1_FILL-link">
                <g id="CookiesHQ_icon_0_Layer0_0_MEMBER_1_FILL">
                    <path d="M45.65,18.15 C45.6833333,17.85 45.7,17.5333333 45.7,17.2 C45.7,16.0333333 45.4333333,14.9166667 44.9,13.85 C44.3666667,12.75 43.6333333,11.85 42.7,11.15 C42.2333333,10.4166667 41.75,9.71666667 41.25,9.05 C40.45,6.88333333 39.1666667,5.11666667 37.4,3.75 C35.5,2.28333333 33.3833333,1.55 31.05,1.55 L30.75,1.55 C29.65,1.21666667 28.65,0.966666667 27.75,0.8 C26.5166667,0.266666667 25.2166667,0 23.85,0 C22.45,0 21.1166667,0.3 19.85,0.9 L18.75,1.1 C18.2166667,0.966666667 17.65,0.9 17.05,0.9 C16.0833333,0.9 15.15,1.1 14.25,1.5 C13.3833333,1.9 12.6333333,2.46666667 12,3.2 C9.8,3.83333333 7.96666667,5.06666667 6.5,6.9 C5.06666667,8.76666667 4.25,10.9 4.05,13.3 L3.55,14.25 C2.75,14.95 2.11666667,15.8 1.65,16.8 C1.18333333,17.8 0.95,18.8666667 0.95,20 C0.95,20.9666667 1.1,21.8166667 1.4,22.55 C0.933333333,23.0166667 0.583333333,23.55 0.35,24.15 C0.116666667,24.7833333 0,25.45 0,26.15 C0,26.8833333 0.15,27.5833333 0.45,28.25 C0.75,28.9166667 1.15,29.4833333 1.65,29.95 L1.65,30.5 C1.65,31.7333333 1.91666667,32.8833333 2.45,33.95 C2.98333333,35.0166667 3.71666667,35.9 4.65,36.6 C4.78333333,38.1 5.31666667,39.4666667 6.25,40.7 C7.18333333,41.8 8.28333333,42.55 9.55,42.95 C10.3833333,44.1166667 11.3666667,45.1 12.5,45.9 C14.3,47.1333333 16.25,47.75 18.35,47.75 C18.85,47.75 19.3166667,47.7 19.75,47.6 C21.05,47.8666667 22.45,48 23.95,48 C26.85,48 29.6333333,47.45 32.3,46.35 L32.5,46.35 C33.8666667,46.35 35.1833333,46.0833333 36.45,45.55 C37.65,45.05 38.75,44.3166667 39.75,43.35 C40.7166667,42.4166667 41.5,41.3666667 42.1,40.2 C42.7,39 43.0833333,37.7333333 43.25,36.4 C44.2833333,34.5333333 45.0666667,32.5833333 45.6,30.55 C46.3333333,30.1166667 46.9166667,29.5 47.35,28.7 C47.7833333,27.9 48,27.05 48,26.15 C48,25.1166667 47.7333333,24.1666667 47.2,23.3 C47.0333333,22.1333333 46.65,21.0833333 46.05,20.15 C45.8833333,19.2833333 45.75,18.6166667 45.65,18.15 Z M46.2,26.15 C46.2,26.8166667 46,27.45 45.6,28.05 C45.1666667,28.6166667 44.65,29 44.05,29.2 C43.55,31.5 42.7,33.6833333 41.5,35.75 C41.2666667,38.2166667 40.2833333,40.2666667 38.55,41.9 C36.8833333,43.5666667 34.8666667,44.4 32.5,44.4 L32,44.4 C29.4666667,45.5333333 26.7833333,46.1 23.95,46.1 C22.6166667,46.1 21.2333333,45.9666667 19.8,45.7 C19.3333333,45.7666667 18.85,45.8 18.35,45.8 C16.5833333,45.8 14.9666667,45.2833333 13.5,44.25 C12.4,43.5166667 11.45,42.5166667 10.65,41.25 C9.45,41.05 8.45,40.45 7.65,39.45 C6.85,38.45 6.45,37.2666667 6.45,35.9 L6.45,35.85 L6.15,35.3 C5.31666667,34.8333333 4.66666667,34.1666667 4.2,33.3 C3.7,32.4666667 3.45,31.5333333 3.45,30.5 C3.45,30 3.51666667,29.5166667 3.65,29.05 C3.11666667,28.7833333 2.66666667,28.4 2.3,27.9 C1.96666667,27.3666667 1.8,26.7833333 1.8,26.15 C1.8,25.55 1.95,25 2.25,24.5 C2.51666667,24.0333333 2.86666667,23.65 3.3,23.35 L3.35,22.5 C2.95,21.7333333 2.75,20.9 2.75,20 C2.75,19.0666667 2.95,18.2166667 3.35,17.45 C3.75,16.6833333 4.3,16.0333333 5,15.5 C5.16666667,15.0666667 5.43333333,14.5166667 5.8,13.85 C5.93333333,11.65 6.65,9.71666667 7.95,8.05 C9.28333333,6.41666667 10.95,5.38333333 12.95,4.95 C13.4166667,4.25 14.0166667,3.71666667 14.75,3.35 C15.4833333,2.98333333 16.25,2.8 17.05,2.8 C17.6166667,2.8 18.1833333,2.88333333 18.75,3.05 L20.35,2.7 C21.45,2.2 22.6166667,1.95 23.85,1.95 C25.05,1.95 26.1833333,2.18333333 27.25,2.65 C28.25,2.81666667 29.3333333,3.1 30.5,3.5 L31.05,3.45 C32.9833333,3.45 34.75,4.06666667 36.35,5.3 C37.9166667,6.46666667 39.0166667,8.05 39.65,10.05 C40.3166667,10.85 40.9,11.6833333 41.4,12.55 C42.1666667,13.0833333 42.7666667,13.75 43.2,14.55 C43.6666667,15.3833333 43.9,16.2666667 43.9,17.2 C43.9,17.6 43.8666667,17.95 43.8,18.25 C44,19.0166667 44.1833333,19.9 44.35,20.9 C45.0166667,21.8 45.3833333,22.8333333 45.45,24 C45.95,24.6333333 46.2,25.35 46.2,26.15 Z M24,40.85 C24.0333333,40.7166667 23.9166667,40.4666667 23.65,40.1 L23.25,39.6 C22.95,39.6333333 22.65,39.7166667 22.35,39.85 L21.95,40.1 C22.1166667,40.5333333 22.35,40.8833333 22.65,41.15 C22.7833333,41.2833333 22.9333333,41.3833333 23.1,41.45 C23.4333333,41.4166667 23.7333333,41.2166667 24,40.85 Z M14,36.75 C14.1666667,36.95 14.3166667,37.1 14.45,37.2 C14.9166667,37.2666667 15.4,37.15 15.9,36.85 C16,36.6833333 15.95,36.3666667 15.75,35.9 L15.4,35.3 C15.0333333,35.2666667 14.6,35.2666667 14.1,35.3 L13.5,35.45 C13.5333333,35.95 13.7,36.3833333 14,36.75 Z M32.75,38.2 L32.4,38.15 C32.2666667,38.2166667 32.1333333,38.35 32,38.55 L31.95,38.85 C31.9833333,39.0166667 32.25,39.2 32.75,39.4 C33.0833333,39.2333333 33.3333333,38.9833333 33.5,38.65 C33.3,38.4166667 33.05,38.2666667 32.75,38.2 Z M38.3,14.2 L38.15,13.85 C37.85,14.0166667 37.6166667,14.2166667 37.45,14.45 L37.25,14.8 C37.3166667,15.0666667 37.4666667,15.3 37.7,15.5 C37.8666667,15.5 38.1333333,15.3 38.5,14.9 C38.5,14.6666667 38.4333333,14.4333333 38.3,14.2 Z M3.5,26.15 C3.5,26.5166667 3.63333333,26.85 3.9,27.15 C4.16666667,27.3833333 4.48333333,27.5 4.85,27.5 L5.75,27.5 C6.08333333,28.8666667 6.75,30.0666667 7.75,31.1 C9.25,32.7 11.0666667,33.5 13.2,33.5 C14.9666667,33.5 16.5166667,32.9666667 17.85,31.9 C18.2166667,32.6 18.6333333,33.2 19.1,33.7 C20.5333333,35.1666667 22.25,35.9 24.25,35.9 C26.25,35.9 27.95,35.1666667 29.35,33.7 C29.7833333,33.2333333 30.1666667,32.7333333 30.5,32.2 C31.7666667,33.0666667 33.1833333,33.5 34.75,33.5 C36.8833333,33.5 38.7166667,32.7 40.25,31.1 C41.2166667,30.0666667 41.8666667,28.8666667 42.2,27.5 L43.15,27.5 C43.5166667,27.5 43.8333333,27.3833333 44.1,27.15 C44.3666667,26.85 44.5,26.5166667 44.5,26.15 C44.5,25.75 44.3666667,25.4333333 44.1,25.2 C43.8666667,24.9 43.55,24.75 43.15,24.75 L42.5,24.75 C42.3666667,22.7166667 41.6166667,20.9666667 40.25,19.5 C38.7166667,17.9 36.8833333,17.1 34.75,17.1 C32.6166667,17.1 30.7833333,17.9 29.25,19.5 C28.65,20.1333333 28.1833333,20.8166667 27.85,21.55 C26.7833333,20.7833333 25.5833333,20.4 24.25,20.4 C22.75,20.4 21.4166667,20.8833333 20.25,21.85 C19.8833333,20.9833333 19.3666667,20.2 18.7,19.5 C17.2,17.9 15.3666667,17.1 13.2,17.1 C11.0666667,17.1 9.25,17.9 7.75,19.5 C6.35,21 5.6,22.75 5.5,24.75 L4.85,24.75 C4.48333333,24.75 4.16666667,24.9 3.9,25.2 C3.63333333,25.4333333 3.5,25.75 3.5,26.15 Z M38.55,21.25 C39.6166667,22.3833333 40.15,23.7333333 40.15,25.3 C40.15,26.9 39.6166667,28.2666667 38.55,29.4 C37.5166667,30.5 36.25,31.05 34.75,31.05 C33.2833333,31.05 32,30.5 30.9,29.4 C29.8333333,28.2666667 29.3,26.9 29.3,25.3 C29.3,23.7333333 29.8333333,22.3833333 30.9,21.25 C32,20.1166667 33.2833333,19.55 34.75,19.55 C36.25,19.55 37.5166667,20.1166667 38.55,21.25 Z M26.95,24.35 L27.05,24.45 C27.0166667,24.65 27,24.9333333 27,25.3 C27,27.5666667 27.75,29.5 29.25,31.1 C28.9833333,31.6 28.65,32.0833333 28.25,32.55 C27.15,33.6833333 25.8166667,34.25 24.25,34.25 C22.6833333,34.25 21.35,33.6833333 20.25,32.55 C19.7166667,31.9833333 19.3166667,31.3833333 19.05,30.75 C20.3166667,29.2166667 20.95,27.4 20.95,25.3 L20.95,25.1 C21.0833333,24.8666667 21.2666667,24.6166667 21.5,24.35 C22.2666667,23.5833333 23.1833333,23.2 24.25,23.2 C25.3166667,23.2 26.2166667,23.5833333 26.95,24.35 Z M17.05,21.25 C18.1166667,22.3833333 18.65,23.7333333 18.65,25.3 C18.65,26.8666667 18.1166667,28.2333333 17.05,29.4 C15.9833333,30.5 14.7,31.05 13.2,31.05 C11.7,31.05 10.4166667,30.5 9.35,29.4 C8.28333333,28.2333333 7.75,26.8666667 7.75,25.3 C7.75,23.7333333 8.28333333,22.3833333 9.35,21.25 C10.4166667,20.1166667 11.7,19.55 13.2,19.55 C14.7,19.55 15.9833333,20.1166667 17.05,21.25 Z M16.45,25.3 C16.45,24.3333333 16.1333333,23.5166667 15.5,22.85 C14.8666667,22.2166667 14.1,21.9 13.2,21.9 C12.3333333,21.9 11.5833333,22.2166667 10.95,22.85 C10.2833333,23.55 9.95,24.3666667 9.95,25.3 C9.95,26.2666667 10.2833333,27.0833333 10.95,27.75 C11.5833333,28.4166667 12.3333333,28.75 13.2,28.75 C14.1,28.75 14.8666667,28.4166667 15.5,27.75 C16.1333333,27.0833333 16.45,26.2666667 16.45,25.3 Z M11.25,24.95 C11.0833333,24.8166667 11,24.6166667 11,24.35 C11,24.1166667 11.0833333,23.9166667 11.25,23.75 C11.4166667,23.55 11.6166667,23.45 11.85,23.45 C12.0833333,23.45 12.2833333,23.55 12.45,23.75 C12.5833333,23.8833333 12.65,24.0833333 12.65,24.35 C12.65,24.6166667 12.5833333,24.8166667 12.45,24.95 C12.2833333,25.15 12.0833333,25.25 11.85,25.25 C11.6166667,25.25 11.4166667,25.15 11.25,24.95 Z M37.95,25.3 C37.95,24.3666667 37.6333333,23.55 37,22.85 C36.3666667,22.2166667 35.6,21.9 34.7,21.9 C33.8,21.9 33.0333333,22.2166667 32.4,22.85 C31.8,23.5166667 31.5,24.3333333 31.5,25.3 C31.5,26.2666667 31.8,27.0833333 32.4,27.75 C33.0333333,28.4166667 33.8,28.75 34.7,28.75 C35.6,28.75 36.3666667,28.4166667 37,27.75 C37.6333333,27.05 37.95,26.2333333 37.95,25.3 Z M33.3,25.25 C33.0666667,25.25 32.8666667,25.15 32.7,24.95 C32.5333333,24.8166667 32.45,24.6166667 32.45,24.35 C32.45,24.1166667 32.5333333,23.9166667 32.7,23.75 C32.8666667,23.55 33.0666667,23.45 33.3,23.45 C33.5333333,23.45 33.7333333,23.55 33.9,23.75 C34.0666667,23.9166667 34.15,24.1166667 34.15,24.35 C34.15,24.6166667 34.0666667,24.8166667 33.9,24.95 C33.7333333,25.15 33.5333333,25.25 33.3,25.25 Z M34.25,10.55 C34.4166667,10.6166667 34.5666667,10.6666667 34.7,10.7 C34.9333333,10.5666667 35.1833333,10.0833333 35.45,9.25 C35.2833333,8.88333333 35.05,8.6 34.75,8.4 L34.3,8.05 C33.9666667,8.48333333 33.75,8.93333333 33.65,9.4 L33.6,10.05 C33.7333333,10.25 33.95,10.4166667 34.25,10.55 Z M22.3,12.45 L21.65,13.05 C21.5833333,13.35 21.65,13.7 21.85,14.1 C21.9833333,14.3333333 22.0833333,14.4833333 22.15,14.55 C22.5166667,14.65 23.2833333,14.4166667 24.45,13.85 C24.5833333,13.3833333 24.6,12.8833333 24.5,12.35 L24.3,11.7 C23.5333333,11.8 22.8666667,12.05 22.3,12.45 Z M14.35,9.95 C14.0166667,10.35 13.8,10.8 13.7,11.3 C13.6666667,11.5666667 13.65,11.7833333 13.65,11.95 C13.85,12.2833333 14.2,12.5166667 14.7,12.65 C14.9333333,12.5166667 15.2,12.0166667 15.5,11.15 C15.3333333,10.8166667 15.0833333,10.5333333 14.75,10.3 L14.35,9.95 Z" id="Shape"></path>
                </g>
            </g>
        </g>
    </g>
</svg>